<mxfile host="65bd71144e">
    <diagram name="Page-1" id="nfa1U9PDf81wFpfsbiPW">
        <mxGraphModel dx="625" dy="359" grid="1" gridSize="10" guides="1" tooltips="1" connect="1" arrows="1" fold="1" page="1" pageScale="1" pageWidth="850" pageHeight="1100" math="0" shadow="0">
            <root>
                <mxCell id="0"/>
                <mxCell id="1" parent="0"/>
                <mxCell id="-0-SfQ91Qq8uxcKU5w4G-11" style="edgeStyle=orthogonalEdgeStyle;rounded=0;orthogonalLoop=1;jettySize=auto;html=1;" parent="1" source="-0-SfQ91Qq8uxcKU5w4G-1" target="-0-SfQ91Qq8uxcKU5w4G-12" edge="1">
                    <mxGeometry relative="1" as="geometry">
                        <mxPoint x="150" y="340" as="targetPoint"/>
                    </mxGeometry>
                </mxCell>
                <mxCell id="-0-SfQ91Qq8uxcKU5w4G-1" value="&lt;font face=&quot;Lucida Console&quot;&gt;/tsconfig.json&lt;/font&gt;&lt;br&gt;main config" style="rounded=0;whiteSpace=wrap;html=1;" parent="1" vertex="1">
                    <mxGeometry x="90" y="240" width="140" height="60" as="geometry"/>
                </mxCell>
                <mxCell id="-0-SfQ91Qq8uxcKU5w4G-15" style="edgeStyle=orthogonalEdgeStyle;rounded=0;orthogonalLoop=1;jettySize=auto;html=1;entryX=0.5;entryY=0;entryDx=0;entryDy=0;" parent="1" source="-0-SfQ91Qq8uxcKU5w4G-3" target="-0-SfQ91Qq8uxcKU5w4G-13" edge="1">
                    <mxGeometry relative="1" as="geometry"/>
                </mxCell>
                <mxCell id="-0-SfQ91Qq8uxcKU5w4G-3" value="&lt;font face=&quot;Lucida Console&quot;&gt;/test/tsconfig.json&lt;/font&gt;&lt;br&gt;test config" style="rounded=0;whiteSpace=wrap;html=1;" parent="1" vertex="1">
                    <mxGeometry x="280" y="240" width="180" height="60" as="geometry"/>
                </mxCell>
                <mxCell id="-0-SfQ91Qq8uxcKU5w4G-6" value="" style="endArrow=none;html=1;rounded=0;exitX=0;exitY=1;exitDx=0;exitDy=0;exitPerimeter=0;movable=1;resizable=1;rotatable=1;deletable=1;editable=1;locked=0;connectable=1;" parent="1" source="-0-SfQ91Qq8uxcKU5w4G-7" edge="1">
                    <mxGeometry width="50" height="50" relative="1" as="geometry">
                        <mxPoint x="10" y="320" as="sourcePoint"/>
                        <mxPoint x="460" y="320" as="targetPoint"/>
                    </mxGeometry>
                </mxCell>
                <mxCell id="-0-SfQ91Qq8uxcKU5w4G-7" value="configuration&lt;br&gt;repository" style="text;html=1;align=left;verticalAlign=middle;resizable=1;points=[];autosize=1;strokeColor=none;fillColor=none;movable=1;rotatable=1;deletable=1;editable=1;locked=0;connectable=1;" parent="1" vertex="1">
                    <mxGeometry y="280" width="90" height="40" as="geometry"/>
                </mxCell>
                <mxCell id="12" style="edgeStyle=none;html=1;entryX=0.5;entryY=1;entryDx=0;entryDy=0;" edge="1" parent="1" source="-0-SfQ91Qq8uxcKU5w4G-8" target="10">
                    <mxGeometry relative="1" as="geometry"/>
                </mxCell>
                <mxCell id="-0-SfQ91Qq8uxcKU5w4G-8" value="contains most compiler options" style="text;html=1;align=center;verticalAlign=middle;resizable=0;points=[];autosize=1;strokeColor=none;fillColor=none;" parent="1" vertex="1">
                    <mxGeometry x="65" y="210" width="190" height="30" as="geometry"/>
                </mxCell>
                <mxCell id="-0-SfQ91Qq8uxcKU5w4G-12" value="&lt;font face=&quot;Lucida Console&quot;&gt;/tsconfig.json&lt;/font&gt;&lt;br&gt;main config" style="rounded=0;whiteSpace=wrap;html=1;fillColor=#dae8fc;strokeColor=#6c8ebf;" parent="1" vertex="1">
                    <mxGeometry x="90" y="340" width="140" height="60" as="geometry"/>
                </mxCell>
                <mxCell id="-0-SfQ91Qq8uxcKU5w4G-13" value="&lt;font face=&quot;Lucida Console&quot;&gt;/tsconfig.test.json&lt;/font&gt;&lt;br&gt;test config" style="rounded=0;whiteSpace=wrap;html=1;" parent="1" vertex="1">
                    <mxGeometry x="280" y="340" width="180" height="60" as="geometry"/>
                </mxCell>
                <mxCell id="-0-SfQ91Qq8uxcKU5w4G-14" value="monorepo" style="text;html=1;align=left;verticalAlign=middle;resizable=1;points=[];autosize=1;strokeColor=none;fillColor=none;movable=1;rotatable=1;deletable=1;editable=1;locked=0;connectable=1;" parent="1" vertex="1">
                    <mxGeometry y="320" width="80" height="30" as="geometry"/>
                </mxCell>
                <mxCell id="-0-SfQ91Qq8uxcKU5w4G-23" style="edgeStyle=orthogonalEdgeStyle;rounded=0;orthogonalLoop=1;jettySize=auto;html=1;entryX=0.5;entryY=0;entryDx=0;entryDy=0;" parent="1" source="-0-SfQ91Qq8uxcKU5w4G-16" target="-0-SfQ91Qq8uxcKU5w4G-21" edge="1">
                    <mxGeometry relative="1" as="geometry"/>
                </mxCell>
                <mxCell id="-0-SfQ91Qq8uxcKU5w4G-16" value="encompasses all ts files" style="text;html=1;align=center;verticalAlign=middle;resizable=0;points=[];autosize=1;strokeColor=none;fillColor=none;" parent="1" vertex="1">
                    <mxGeometry x="85" y="400" width="150" height="30" as="geometry"/>
                </mxCell>
                <mxCell id="-0-SfQ91Qq8uxcKU5w4G-24" style="edgeStyle=orthogonalEdgeStyle;rounded=0;orthogonalLoop=1;jettySize=auto;html=1;entryX=0.5;entryY=0;entryDx=0;entryDy=0;" parent="1" source="-0-SfQ91Qq8uxcKU5w4G-17" target="-0-SfQ91Qq8uxcKU5w4G-22" edge="1">
                    <mxGeometry relative="1" as="geometry"/>
                </mxCell>
                <mxCell id="-0-SfQ91Qq8uxcKU5w4G-17" value="placeholder" style="text;html=1;align=center;verticalAlign=middle;resizable=0;points=[];autosize=1;strokeColor=none;fillColor=none;" parent="1" vertex="1">
                    <mxGeometry x="325" y="400" width="90" height="30" as="geometry"/>
                </mxCell>
                <mxCell id="-0-SfQ91Qq8uxcKU5w4G-19" value="" style="endArrow=none;html=1;rounded=0;exitX=0;exitY=1;exitDx=0;exitDy=0;exitPerimeter=0;movable=1;resizable=1;rotatable=1;deletable=1;editable=1;locked=0;connectable=1;" parent="1" edge="1">
                    <mxGeometry width="50" height="50" relative="1" as="geometry">
                        <mxPoint y="450" as="sourcePoint"/>
                        <mxPoint x="460" y="450" as="targetPoint"/>
                    </mxGeometry>
                </mxCell>
                <mxCell id="-0-SfQ91Qq8uxcKU5w4G-20" value="package" style="text;html=1;align=left;verticalAlign=middle;resizable=0;points=[];autosize=1;strokeColor=none;fillColor=none;" parent="1" vertex="1">
                    <mxGeometry y="450" width="70" height="30" as="geometry"/>
                </mxCell>
                <mxCell id="-0-SfQ91Qq8uxcKU5w4G-25" style="edgeStyle=orthogonalEdgeStyle;rounded=0;orthogonalLoop=1;jettySize=auto;html=1;entryX=-0.018;entryY=0.502;entryDx=0;entryDy=0;entryPerimeter=0;" parent="1" source="-0-SfQ91Qq8uxcKU5w4G-21" target="-0-SfQ91Qq8uxcKU5w4G-22" edge="1">
                    <mxGeometry relative="1" as="geometry"/>
                </mxCell>
                <mxCell id="-0-SfQ91Qq8uxcKU5w4G-21" value="&lt;font face=&quot;Lucida Console&quot;&gt;pkg/tsconfig.json&lt;/font&gt;&lt;br&gt;main config" style="rounded=0;whiteSpace=wrap;html=1;fillColor=#dae8fc;strokeColor=#6c8ebf;" parent="1" vertex="1">
                    <mxGeometry x="90" y="470" width="140" height="60" as="geometry"/>
                </mxCell>
                <mxCell id="-0-SfQ91Qq8uxcKU5w4G-22" value="&lt;font face=&quot;Lucida Console&quot;&gt;pkg/test/tsconfig.json&lt;/font&gt;&lt;br&gt;test config" style="rounded=0;whiteSpace=wrap;html=1;fillColor=#dae8fc;strokeColor=#6c8ebf;" parent="1" vertex="1">
                    <mxGeometry x="280" y="470" width="180" height="60" as="geometry"/>
                </mxCell>
                <mxCell id="-0-SfQ91Qq8uxcKU5w4G-26" value="extends mono test conf&lt;br&gt;extends package configuration&lt;br&gt;change root&lt;br&gt;set includes" style="text;html=1;align=center;verticalAlign=middle;resizable=0;points=[];autosize=1;strokeColor=none;fillColor=none;" parent="1" vertex="1">
                    <mxGeometry x="275" y="530" width="190" height="70" as="geometry"/>
                </mxCell>
                <mxCell id="-0-SfQ91Qq8uxcKU5w4G-27" value="extends mono conf&lt;br&gt;change root&lt;br&gt;set includes" style="text;html=1;align=center;verticalAlign=middle;resizable=0;points=[];autosize=1;strokeColor=none;fillColor=none;" parent="1" vertex="1">
                    <mxGeometry x="100" y="530" width="120" height="60" as="geometry"/>
                </mxCell>
                <mxCell id="2" value="&lt;div style=&quot;text-align: left;&quot;&gt;&lt;b style=&quot;background-color: initial;&quot;&gt;warning&lt;/b&gt;&lt;/div&gt;&lt;div style=&quot;text-align: left;&quot;&gt;&lt;span style=&quot;background-color: initial;&quot;&gt;remove tsbuildinfo before compilling&lt;/span&gt;&lt;/div&gt;" style="text;html=1;align=center;verticalAlign=middle;resizable=0;points=[];autosize=1;strokeColor=#b85450;fillColor=#f8cecc;" parent="1" vertex="1">
                    <mxGeometry y="10" width="210" height="40" as="geometry"/>
                </mxCell>
                <mxCell id="3" value="&lt;font face=&quot;Lucida Console&quot;&gt;/tsconfig.json&lt;/font&gt;&lt;br&gt;main config" style="rounded=0;whiteSpace=wrap;html=1;" parent="1" vertex="1">
                    <mxGeometry x="90" y="240" width="140" height="60" as="geometry"/>
                </mxCell>
                <mxCell id="4" value="&lt;font face=&quot;Lucida Console&quot;&gt;/test/tsconfig.json&lt;/font&gt;&lt;br&gt;test config" style="rounded=0;whiteSpace=wrap;html=1;" parent="1" vertex="1">
                    <mxGeometry x="280" y="240" width="180" height="60" as="geometry"/>
                </mxCell>
                <mxCell id="5" value="&lt;font face=&quot;Lucida Console&quot;&gt;/tsconfig.test.json&lt;/font&gt;&lt;br&gt;test config" style="rounded=0;whiteSpace=wrap;html=1;" parent="1" vertex="1">
                    <mxGeometry x="280" y="340" width="180" height="60" as="geometry"/>
                </mxCell>
                <mxCell id="6" value="&lt;font face=&quot;Lucida Console&quot;&gt;/tsconfig.base.json&lt;/font&gt;&lt;br&gt;main config" style="rounded=0;whiteSpace=wrap;html=1;fillColor=#dae8fc;strokeColor=#6c8ebf;" parent="1" vertex="1">
                    <mxGeometry x="90" y="240" width="140" height="60" as="geometry"/>
                </mxCell>
                <mxCell id="7" value="&lt;font face=&quot;Lucida Console&quot;&gt;/tsconfig.test.json&lt;/font&gt;&lt;br&gt;test config" style="rounded=0;whiteSpace=wrap;html=1;fillColor=#dae8fc;strokeColor=#6c8ebf;" parent="1" vertex="1">
                    <mxGeometry x="280" y="240" width="180" height="60" as="geometry"/>
                </mxCell>
                <mxCell id="8" value="&lt;font face=&quot;Lucida Console&quot;&gt;/tsconfig.test.json&lt;/font&gt;&lt;br&gt;test config" style="rounded=0;whiteSpace=wrap;html=1;fillColor=#dae8fc;strokeColor=#6c8ebf;" parent="1" vertex="1">
                    <mxGeometry x="280" y="340" width="180" height="60" as="geometry"/>
                </mxCell>
                <mxCell id="9" value="" style="endArrow=none;html=1;rounded=0;exitX=0;exitY=1;exitDx=0;exitDy=0;exitPerimeter=0;movable=1;resizable=1;rotatable=1;deletable=1;editable=1;locked=0;connectable=1;" edge="1" parent="1">
                    <mxGeometry width="50" height="50" relative="1" as="geometry">
                        <mxPoint y="200" as="sourcePoint"/>
                        <mxPoint x="460" y="200" as="targetPoint"/>
                    </mxGeometry>
                </mxCell>
                <mxCell id="15" style="edgeStyle=none;html=1;entryX=0;entryY=0.5;entryDx=0;entryDy=0;" edge="1" parent="1" source="10" target="11">
                    <mxGeometry relative="1" as="geometry"/>
                </mxCell>
                <mxCell id="10" value="&lt;font face=&quot;Lucida Console&quot;&gt;/tsconfig.json&lt;/font&gt;&lt;br&gt;main config" style="rounded=0;whiteSpace=wrap;html=1;fillColor=#dae8fc;strokeColor=#6c8ebf;" vertex="1" parent="1">
                    <mxGeometry x="90" y="90" width="140" height="60" as="geometry"/>
                </mxCell>
                <mxCell id="11" value="&lt;font face=&quot;Lucida Console&quot;&gt;/test/tsconfig.json&lt;/font&gt;&lt;br&gt;test config" style="rounded=0;whiteSpace=wrap;html=1;fillColor=#dae8fc;strokeColor=#6c8ebf;" vertex="1" parent="1">
                    <mxGeometry x="280" y="90" width="180" height="60" as="geometry"/>
                </mxCell>
                <mxCell id="14" style="edgeStyle=none;html=1;entryX=0.5;entryY=1;entryDx=0;entryDy=0;" edge="1" parent="1" source="13" target="11">
                    <mxGeometry relative="1" as="geometry"/>
                </mxCell>
                <mxCell id="13" value="changes types to include mocha chai" style="text;html=1;align=center;verticalAlign=middle;resizable=0;points=[];autosize=1;strokeColor=none;fillColor=none;" vertex="1" parent="1">
                    <mxGeometry x="260" y="210" width="220" height="30" as="geometry"/>
                </mxCell>
            </root>
        </mxGraphModel>
    </diagram>
</mxfile>